solid OBJECT
  facet normal 0.051474489688273874 0 -0.99867430972831761
    outer loop
      vertex 29.120439529418945 12.280110359191895 1.5833470821380615
      vertex 26.473127365112305 20.470233917236328 1.4468971490859985
      vertex 29.120439529418945 17.740192413330078 1.5833470821380615
    endloop
  endfacet
  facet normal 0.051474489688273874 0 -0.99867430972831761
    outer loop
      vertex 29.120439529418945 6.8200273513793945 1.5833470821380615
      vertex 26.473127365112305 4.0899863243103027 1.4468971490859985
      vertex 29.120439529418945 12.280110359191895 1.5833470821380615
    endloop
  endfacet
  facet normal 0.051474450266959598 -4.1242307839659732e-08 -0.99867431176020172
    outer loop
      vertex 23.825813293457031 1.3599450588226318 1.3104473352432251
      vertex 17.869359970092773 2.2699587345123291 1.0034351348876953
      vertex 26.473127365112305 4.0899863243103027 1.4468971490859985
    endloop
  endfacet
  facet normal 0.051474457797046277 -1.255983778415584e-17 -0.99867431137208107
    outer loop
      vertex 0 5 0.082398496568202972
      vertex 1.7763568394002505e-15 12.280110359191895 0.082398496568202972
      vertex 5.9564533233642578 4.0899863243103027 0.38941070437431335
    endloop
  endfacet
  facet normal 0.05147446153466731 0 -0.99867431117943362
    outer loop
      vertex 5.9564533233642578 4.0899863243103027 0.38941070437431335
      vertex 11.912906646728516 21.380247116088867 0.69642293453216553
      vertex 11.912906646728516 3.1799724102020264 0.69642293453216553
    endloop
  endfacet
  facet normal 0.051474456551172589 0 -0.9986743114362967
    outer loop
      vertex 11.912906646728516 3.1799724102020264 0.69642293453216553
      vertex 11.912906646728516 21.380247116088867 0.69642293453216553
      vertex 17.869359970092773 2.2699587345123291 1.0034351348876953
    endloop
  endfacet
  facet normal 0.051474457797046312 -1.2559837784155848e-17 -0.99867431137208107
    outer loop
      vertex 3.5527136788005009e-15 19.560220718383789 0.082398496568202972
      vertex 5.9564533233642578 20.470233917236328 0.38941070437431335
      vertex 1.7763568394002505e-15 12.280110359191895 0.082398496568202972
    endloop
  endfacet
  facet normal 0.051474450266951473 4.1242296337288693e-08 -0.99867431176020216
    outer loop
      vertex 23.825813293457031 23.200275421142578 1.3104473352432251
      vertex 26.473127365112305 20.470233917236328 1.4468971490859985
      vertex 17.869359970092773 22.290260314941406 1.0034351348876953
    endloop
  endfacet
  facet normal 0.051474456551172589 0 -0.9986743114362967
    outer loop
      vertex 17.869359970092773 22.290260314941406 1.0034351348876953
      vertex 17.869359970092773 2.2699587345123291 1.0034351348876953
      vertex 11.912906646728516 21.380247116088867 0.69642293453216553
    endloop
  endfacet
  facet normal 0.051474462001869628 -3.0661774538076384e-09 -0.99867431115535266
    outer loop
      vertex 11.912906646728516 21.380247116088867 0.69642293453216553
      vertex 1.7763568394002505e-15 12.280110359191895 0.082398496568202972
      vertex 5.9564533233642578 20.470233917236328 0.38941070437431335
    endloop
  endfacet
  facet normal 0.051474438033816565 -1.6740743716892951e-08 -0.99867431239073245
    outer loop
      vertex 29.120439529418945 12.280110359191895 1.5833470821380615
      vertex 17.869359970092773 22.290260314941406 1.0034351348876953
      vertex 26.473127365112305 20.470233917236328 1.4468971490859985
    endloop
  endfacet
  facet normal 0.05147443803381431 1.6740743475462501e-08 -0.99867431239073268
    outer loop
      vertex 26.473127365112305 4.0899863243103027 1.4468971490859985
      vertex 17.869359970092773 2.2699587345123291 1.0034351348876953
      vertex 29.120439529418945 12.280110359191895 1.5833470821380615
    endloop
  endfacet
  facet normal 0.051474458998424517 8.7605075040664811e-10 -0.99867431131015849
    outer loop
      vertex 1.7763568394002505e-15 12.280110359191895 0.082398496568202972
      vertex 11.912906646728516 21.380247116088867 0.69642293453216553
      vertex 5.9564533233642578 4.0899863243103027 0.38941070437431335
    endloop
  endfacet
  facet normal 0.051474452888687877 0 -0.99867431162507136
    outer loop
      vertex 17.869359970092773 22.290260314941406 1.0034351348876953
      vertex 29.120439529418945 12.280110359191895 1.5833470821380615
      vertex 17.869359970092773 2.2699587345123291 1.0034351348876953
    endloop
  endfacet
  facet normal 0 0 1
    outer loop
      vertex 29.120439529418945 6.8200273513793945 9
      vertex 29.120439529418945 12.280110359191895 9
      vertex 15.883875846862793 2.5732967853546143 9
    endloop
  endfacet
  facet normal 0 0 1
    outer loop
      vertex 29.120439529418945 12.280110359191895 9
      vertex 29.120439529418945 17.740192413330078 9
      vertex 23.825813293457031 23.200275421142578 9
    endloop
  endfacet
  facet normal -0 -0 1
    outer loop
      vertex 23.825813293457031 23.200275421142578 9
      vertex 11.912906646728516 21.380247116088867 9
      vertex 29.120439529418945 12.280110359191895 9
    endloop
  endfacet
  facet normal 0 -0 1
    outer loop
      vertex 11.912906646728516 21.380247116088867 9
      vertex 0 19.560220718383789 9
      vertex 7.9419379234313965 3.7866482734680176 9
    endloop
  endfacet
  facet normal -0 -0 1
    outer loop
      vertex 0 19.560220718383789 9
      vertex 0 5 9
      vertex 7.9419379234313965 3.7866482734680176 9
    endloop
  endfacet
  facet normal 0 0 1
    outer loop
      vertex 7.9419379234313965 3.7866482734680176 9
      vertex 15.883875846862793 2.5732967853546143 9
      vertex 11.912906646728516 21.380247116088867 9
    endloop
  endfacet
  facet normal 0 0 1
    outer loop
      vertex 15.883875846862793 2.5732967853546143 9
      vertex 23.825813293457031 1.3599450588226318 9
      vertex 29.120439529418945 6.8200273513793945 9
    endloop
  endfacet
  facet normal -0 0 1
    outer loop
      vertex 15.883875846862793 2.5732967853546143 9
      vertex 29.120439529418945 12.280110359191895 9
      vertex 11.912906646728516 21.380247116088867 9
    endloop
  endfacet
  facet normal 1 -0 0
    outer loop
      vertex 29.120439529418945 12.280110359191895 1.5833470821380615
      vertex 29.120439529418945 17.740192413330078 1.5833470821380615
      vertex 29.120439529418945 17.740192413330078 5.2916736602783203
    endloop
  endfacet
  facet normal 1 0 -0
    outer loop
      vertex 29.120439529418945 17.740192413330078 9
      vertex 29.120439529418945 12.280110359191895 9
      vertex 29.120439529418945 12.280110359191895 5.2916736602783203
    endloop
  endfacet
  facet normal 1 0 -0
    outer loop
      vertex 29.120439529418945 12.280110359191895 5.2916736602783203
      vertex 29.120439529418945 12.280110359191895 1.5833470821380615
      vertex 29.120439529418945 17.740192413330078 5.2916736602783203
    endloop
  endfacet
  facet normal 1 0 -0
    outer loop
      vertex 29.120439529418945 17.740192413330078 5.2916736602783203
      vertex 29.120439529418945 17.740192413330078 9
      vertex 29.120439529418945 12.280110359191895 5.2916736602783203
    endloop
  endfacet
  facet normal 1 -0 0
    outer loop
      vertex 29.120439529418945 6.8200273513793945 1.5833470821380615
      vertex 29.120439529418945 12.280110359191895 1.5833470821380615
      vertex 29.120439529418945 12.280110359191895 5.2916736602783203
    endloop
  endfacet
  facet normal 1 0 -0
    outer loop
      vertex 29.120439529418945 12.280110359191895 9
      vertex 29.120439529418945 6.8200273513793945 9
      vertex 29.120439529418945 6.8200273513793945 5.2916736602783203
    endloop
  endfacet
  facet normal 1 0 0
    outer loop
      vertex 29.120439529418945 12.280110359191895 5.2916736602783203
      vertex 29.120439529418945 12.280110359191895 9
      vertex 29.120439529418945 6.8200273513793945 5.2916736602783203
    endloop
  endfacet
  facet normal 1 -0 0
    outer loop
      vertex 29.120439529418945 6.8200273513793945 5.2916736602783203
      vertex 29.120439529418945 6.8200273513793945 1.5833470821380615
      vertex 29.120439529418945 12.280110359191895 5.2916736602783203
    endloop
  endfacet
  facet normal 0.71790021874686127 -0.69614601623740457 0
    outer loop
      vertex 23.825813293457031 1.3599450588226318 1.3104473352432251
      vertex 26.473127365112305 4.0899863243103027 1.4468971490859985
      vertex 23.825813293457031 1.3599450588226318 5.1552238464355469
    endloop
  endfacet
  facet normal 0.71790043902607237 -0.69614578907451019 0
    outer loop
      vertex 26.473127365112305 4.0899863243103027 1.4468971490859985
      vertex 29.120439529418945 6.8200273513793945 1.5833470821380615
      vertex 29.120439529418945 6.8200273513793945 5.2916736602783203
    endloop
  endfacet
  facet normal 0.71790032888645183 -0.6961459026559863 7.9656805791608555e-08
    outer loop
      vertex 29.120439529418945 6.8200273513793945 9
      vertex 23.825813293457031 1.3599450588226318 9
      vertex 26.473127365112305 4.0899863243103027 1.4468971490859985
    endloop
  endfacet
  facet normal 0.71790043902607237 -0.69614578907451019 0
    outer loop
      vertex 29.120439529418945 6.8200273513793945 5.2916736602783203
      vertex 29.120439529418945 6.8200273513793945 9
      vertex 26.473127365112305 4.0899863243103027 1.4468971490859985
    endloop
  endfacet
  facet normal 0.71790021874686127 -0.69614601623740457 1.342651984968211e-17
    outer loop
      vertex 23.825813293457031 1.3599450588226318 9
      vertex 23.825813293457031 1.3599450588226318 5.1552238464355469
      vertex 26.473127365112305 4.0899863243103027 1.4468971490859985
    endloop
  endfacet
  facet normal -0.15102539444536481 -0.98852988332807712 -0
    outer loop
      vertex 0 5 0.082398496568202972
      vertex 5.9564533233642578 4.0899863243103027 0.38941070437431335
      vertex 0 5 9
    endloop
  endfacet
  facet normal -0.15102543278773456 -0.98852987747021459 -6.4121808960747116e-09
    outer loop
      vertex 5.9564533233642578 4.0899863243103027 0.38941070437431335
      vertex 11.912906646728516 3.1799724102020264 0.69642293453216553
      vertex 7.9419379234313965 3.7866482734680176 9
    endloop
  endfacet
  facet normal -0.15102539572108467 -0.98852988313317525 2.5328404646405944e-08
    outer loop
      vertex 11.912906646728516 3.1799724102020264 0.69642293453216553
      vertex 17.869359970092773 2.2699587345123291 1.0034351348876953
      vertex 15.883875846862793 2.5732967853546143 9
    endloop
  endfacet
  facet normal -0.15102539444536481 -0.98852988332807712 -0
    outer loop
      vertex 17.869359970092773 2.2699587345123291 1.0034351348876953
      vertex 23.825813293457031 1.3599450588226318 1.3104473352432251
      vertex 23.825813293457031 1.3599450588226318 5.1552238464355469
    endloop
  endfacet
  facet normal -0.15102541968523595 -0.98852987947198534 1.9239412572314242e-08
    outer loop
      vertex 23.825813293457031 1.3599450588226318 9
      vertex 15.883875846862793 2.5732967853546143 9
      vertex 17.869359970092773 2.2699587345123291 1.0034351348876953
    endloop
  endfacet
  facet normal -0.15102538182542985 -0.98852988525612251 1.8528063393787449e-08
    outer loop
      vertex 15.883875846862793 2.5732967853546143 9
      vertex 7.9419379234313965 3.7866482734680176 9
      vertex 11.912906646728516 3.1799724102020264 0.69642293453216553
    endloop
  endfacet
  facet normal -0.15102541082442941 -0.98852988082572013 -1.1594829277844845e-08
    outer loop
      vertex 7.9419379234313965 3.7866482734680176 9
      vertex 0 5 9
      vertex 5.9564533233642578 4.0899863243103027 0.38941070437431335
    endloop
  endfacet
  facet normal -0.15102539444536481 -0.98852988332807712 -6.6985390441946465e-21
    outer loop
      vertex 23.825813293457031 1.3599450588226318 5.1552238464355469
      vertex 23.825813293457031 1.3599450588226318 9
      vertex 17.869359970092773 2.2699587345123291 1.0034351348876953
    endloop
  endfacet
  facet normal -1 2.4400136148450219e-16 -3.9839341076558485e-16
    outer loop
      vertex 3.5527136788005009e-15 19.560220718383789 0.082398496568202972
      vertex 1.7763568394002505e-15 12.280110359191895 0.082398496568202972
      vertex 0 19.560220718383789 9
    endloop
  endfacet
  facet normal -1 2.4400136148450219e-16 0
    outer loop
      vertex 1.7763568394002505e-15 12.280110359191895 0.082398496568202972
      vertex 0 5 0.082398496568202972
      vertex 0 5 9
    endloop
  endfacet
  facet normal -1 0 -1.9919670538279243e-16
    outer loop
      vertex 0 5 9
      vertex 0 19.560220718383789 9
      vertex 1.7763568394002505e-15 12.280110359191895 0.082398496568202972
    endloop
  endfacet
  facet normal -0.15102562643735326 0.98852984788483 0
    outer loop
      vertex 23.825813293457031 23.200275421142578 1.3104473352432251
      vertex 17.869359970092773 22.290260314941406 1.0034351348876953
      vertex 23.825813293457031 23.200275421142578 5.1552238464355469
    endloop
  endfacet
  facet normal -0.15102531711469644 0.98852989514248135 -0
    outer loop
      vertex 17.869359970092773 22.290260314941406 1.0034351348876953
      vertex 11.912906646728516 21.380247116088867 0.69642293453216553
      vertex 11.912906646728516 21.380247116088867 9
    endloop
  endfacet
  facet normal -0.15102531711469644 0.98852989514248135 0
    outer loop
      vertex 11.912906646728516 21.380247116088867 0.69642293453216553
      vertex 5.9564533233642578 20.470233917236328 0.38941070437431335
      vertex 11.912906646728516 21.380247116088867 9
    endloop
  endfacet
  facet normal -0.15102531711469652 0.98852989514248135 -6.0167491197278005e-17
    outer loop
      vertex 5.9564533233642578 20.470233917236328 0.38941070437431335
      vertex 3.5527136788005009e-15 19.560220718383789 0.082398496568202972
      vertex 0 19.560220718383789 9
    endloop
  endfacet
  facet normal -0.15102531711469644 0.98852989514248135 0
    outer loop
      vertex 0 19.560220718383789 9
      vertex 11.912906646728516 21.380247116088867 9
      vertex 5.9564533233642578 20.470233917236328 0.38941070437431335
    endloop
  endfacet
  facet normal -0.15102547177602937 0.98852987151366045 -1.1789256579108714e-07
    outer loop
      vertex 11.912906646728516 21.380247116088867 9
      vertex 23.825813293457031 23.200275421142578 9
      vertex 17.869359970092773 22.290260314941406 1.0034351348876953
    endloop
  endfacet
  facet normal -0.15102562643735326 0.98852984788483 2.4985549739001544e-18
    outer loop
      vertex 23.825813293457031 23.200275421142578 9
      vertex 23.825813293457031 23.200275421142578 5.1552238464355469
      vertex 17.869359970092773 22.290260314941406 1.0034351348876953
    endloop
  endfacet
  facet normal 0.71790049979274817 0.6961457264088623 1.0780137548826619e-17
    outer loop
      vertex 29.120439529418945 17.740192413330078 1.5833470821380615
      vertex 26.473127365112305 20.470233917236328 1.4468971490859985
      vertex 29.120439529418945 17.740192413330078 5.2916736602783203
    endloop
  endfacet
  facet normal 0.717900249130209 0.69614598490459156 -0
    outer loop
      vertex 26.473127365112305 20.470233917236328 1.4468971490859985
      vertex 23.825813293457031 23.200275421142578 1.3104473352432251
      vertex 23.825813293457031 23.200275421142578 5.1552238464355469
    endloop
  endfacet
  facet normal 0.71790037446146537 0.69614585565675791 9.0643959492684547e-08
    outer loop
      vertex 23.825813293457031 23.200275421142578 9
      vertex 29.120439529418945 17.740192413330078 9
      vertex 26.473127365112305 20.470233917236328 1.4468971490859985
    endloop
  endfacet
  facet normal 0.717900249130209 0.69614598490459156 0
    outer loop
      vertex 23.825813293457031 23.200275421142578 5.1552238464355469
      vertex 23.825813293457031 23.200275421142578 9
      vertex 26.473127365112305 20.470233917236328 1.4468971490859985
    endloop
  endfacet
  facet normal 0.71790049979274806 0.69614572640886219 0
    outer loop
      vertex 29.120439529418945 17.740192413330078 9
      vertex 29.120439529418945 17.740192413330078 5.2916736602783203
      vertex 26.473127365112305 20.470233917236328 1.4468971490859985
    endloop
  endfacet
endsolid OBJECT
